<mxfile host="app.diagrams.net" modified="2023-11-23T10:54:32.807Z" agent="Mozilla/5.0 (Windows NT 10.0; Win64; x64) AppleWebKit/537.36 (KHTML, like Gecko) Chrome/119.0.0.0 Safari/537.36" etag="vIy9n2hFmNeXwdJnXvs1" version="22.1.3" type="device">
  <diagram id="R2lEEEUBdFMjLlhIrx00" name="Page-1">
    <mxGraphModel dx="2284" dy="1890" grid="1" gridSize="10" guides="1" tooltips="1" connect="1" arrows="1" fold="1" page="1" pageScale="1" pageWidth="850" pageHeight="1100" math="0" shadow="0" extFonts="Permanent Marker^https://fonts.googleapis.com/css?family=Permanent+Marker">
      <root>
        <mxCell id="0" />
        <mxCell id="1" parent="0" />
        <mxCell id="C-vyLk0tnHw3VtMMgP7b-23" value="FactChannel" style="shape=table;startSize=30;container=1;collapsible=1;childLayout=tableLayout;fixedRows=1;rowLines=0;fontStyle=1;align=center;resizeLast=1;fillColor=#0050ef;fontColor=#ffffff;strokeColor=#001DBC;" parent="1" vertex="1">
          <mxGeometry x="220" y="235" width="250" height="240" as="geometry" />
        </mxCell>
        <mxCell id="C-vyLk0tnHw3VtMMgP7b-24" value="" style="shape=partialRectangle;collapsible=0;dropTarget=0;pointerEvents=0;fillColor=none;points=[[0,0.5],[1,0.5]];portConstraint=eastwest;top=0;left=0;right=0;bottom=1;" parent="C-vyLk0tnHw3VtMMgP7b-23" vertex="1">
          <mxGeometry y="30" width="250" height="30" as="geometry" />
        </mxCell>
        <mxCell id="C-vyLk0tnHw3VtMMgP7b-25" value="PK" style="shape=partialRectangle;overflow=hidden;connectable=0;fillColor=#d0cee2;top=0;left=0;bottom=0;right=0;fontStyle=1;strokeColor=#56517e;" parent="C-vyLk0tnHw3VtMMgP7b-24" vertex="1">
          <mxGeometry width="30" height="30" as="geometry">
            <mxRectangle width="30" height="30" as="alternateBounds" />
          </mxGeometry>
        </mxCell>
        <mxCell id="C-vyLk0tnHw3VtMMgP7b-26" value="ChannelID" style="shape=partialRectangle;overflow=hidden;connectable=0;fillColor=#d0cee2;top=0;left=0;bottom=0;right=0;align=left;spacingLeft=6;fontStyle=5;strokeColor=#56517e;" parent="C-vyLk0tnHw3VtMMgP7b-24" vertex="1">
          <mxGeometry x="30" width="220" height="30" as="geometry">
            <mxRectangle width="220" height="30" as="alternateBounds" />
          </mxGeometry>
        </mxCell>
        <mxCell id="C-vyLk0tnHw3VtMMgP7b-27" value="" style="shape=partialRectangle;collapsible=0;dropTarget=0;pointerEvents=0;fillColor=none;points=[[0,0.5],[1,0.5]];portConstraint=eastwest;top=0;left=0;right=0;bottom=0;" parent="C-vyLk0tnHw3VtMMgP7b-23" vertex="1">
          <mxGeometry y="60" width="250" height="30" as="geometry" />
        </mxCell>
        <mxCell id="C-vyLk0tnHw3VtMMgP7b-28" value="FK" style="shape=partialRectangle;overflow=hidden;connectable=0;fillColor=#d0cee2;top=0;left=0;bottom=0;right=0;strokeColor=#56517e;" parent="C-vyLk0tnHw3VtMMgP7b-27" vertex="1">
          <mxGeometry width="30" height="30" as="geometry">
            <mxRectangle width="30" height="30" as="alternateBounds" />
          </mxGeometry>
        </mxCell>
        <mxCell id="C-vyLk0tnHw3VtMMgP7b-29" value="DateID" style="shape=partialRectangle;overflow=hidden;connectable=0;fillColor=#d0cee2;top=0;left=0;bottom=0;right=0;align=left;spacingLeft=6;strokeColor=#56517e;" parent="C-vyLk0tnHw3VtMMgP7b-27" vertex="1">
          <mxGeometry x="30" width="220" height="30" as="geometry">
            <mxRectangle width="220" height="30" as="alternateBounds" />
          </mxGeometry>
        </mxCell>
        <mxCell id="tpAFj8DhVWuROa9Wuw83-29" style="shape=partialRectangle;collapsible=0;dropTarget=0;pointerEvents=0;fillColor=none;points=[[0,0.5],[1,0.5]];portConstraint=eastwest;top=0;left=0;right=0;bottom=0;" vertex="1" parent="C-vyLk0tnHw3VtMMgP7b-23">
          <mxGeometry y="90" width="250" height="30" as="geometry" />
        </mxCell>
        <mxCell id="tpAFj8DhVWuROa9Wuw83-30" value="FK" style="shape=partialRectangle;overflow=hidden;connectable=0;fillColor=#d0cee2;top=0;left=0;bottom=0;right=0;strokeColor=#56517e;" vertex="1" parent="tpAFj8DhVWuROa9Wuw83-29">
          <mxGeometry width="30" height="30" as="geometry">
            <mxRectangle width="30" height="30" as="alternateBounds" />
          </mxGeometry>
        </mxCell>
        <mxCell id="tpAFj8DhVWuROa9Wuw83-31" value="UserID" style="shape=partialRectangle;overflow=hidden;connectable=0;fillColor=#d0cee2;top=0;left=0;bottom=0;right=0;align=left;spacingLeft=6;strokeColor=#56517e;" vertex="1" parent="tpAFj8DhVWuROa9Wuw83-29">
          <mxGeometry x="30" width="220" height="30" as="geometry">
            <mxRectangle width="220" height="30" as="alternateBounds" />
          </mxGeometry>
        </mxCell>
        <mxCell id="tpAFj8DhVWuROa9Wuw83-60" style="shape=partialRectangle;collapsible=0;dropTarget=0;pointerEvents=0;fillColor=none;points=[[0,0.5],[1,0.5]];portConstraint=eastwest;top=0;left=0;right=0;bottom=0;" vertex="1" parent="C-vyLk0tnHw3VtMMgP7b-23">
          <mxGeometry y="120" width="250" height="30" as="geometry" />
        </mxCell>
        <mxCell id="tpAFj8DhVWuROa9Wuw83-61" value="FK" style="shape=partialRectangle;overflow=hidden;connectable=0;fillColor=#d0cee2;top=0;left=0;bottom=0;right=0;strokeColor=#56517e;" vertex="1" parent="tpAFj8DhVWuROa9Wuw83-60">
          <mxGeometry width="30" height="30" as="geometry">
            <mxRectangle width="30" height="30" as="alternateBounds" />
          </mxGeometry>
        </mxCell>
        <mxCell id="tpAFj8DhVWuROa9Wuw83-62" value="CommentID" style="shape=partialRectangle;overflow=hidden;connectable=0;fillColor=#d0cee2;top=0;left=0;bottom=0;right=0;align=left;spacingLeft=6;strokeColor=#56517e;" vertex="1" parent="tpAFj8DhVWuROa9Wuw83-60">
          <mxGeometry x="30" width="220" height="30" as="geometry">
            <mxRectangle width="220" height="30" as="alternateBounds" />
          </mxGeometry>
        </mxCell>
        <mxCell id="tpAFj8DhVWuROa9Wuw83-63" style="shape=partialRectangle;collapsible=0;dropTarget=0;pointerEvents=0;fillColor=none;points=[[0,0.5],[1,0.5]];portConstraint=eastwest;top=0;left=0;right=0;bottom=0;" vertex="1" parent="C-vyLk0tnHw3VtMMgP7b-23">
          <mxGeometry y="150" width="250" height="30" as="geometry" />
        </mxCell>
        <mxCell id="tpAFj8DhVWuROa9Wuw83-64" value="FK" style="shape=partialRectangle;overflow=hidden;connectable=0;fillColor=#d0cee2;top=0;left=0;bottom=0;right=0;strokeColor=#56517e;" vertex="1" parent="tpAFj8DhVWuROa9Wuw83-63">
          <mxGeometry width="30" height="30" as="geometry">
            <mxRectangle width="30" height="30" as="alternateBounds" />
          </mxGeometry>
        </mxCell>
        <mxCell id="tpAFj8DhVWuROa9Wuw83-65" value="NotificationID" style="shape=partialRectangle;overflow=hidden;connectable=0;fillColor=#d0cee2;top=0;left=0;bottom=0;right=0;align=left;spacingLeft=6;strokeColor=#56517e;" vertex="1" parent="tpAFj8DhVWuROa9Wuw83-63">
          <mxGeometry x="30" width="220" height="30" as="geometry">
            <mxRectangle width="220" height="30" as="alternateBounds" />
          </mxGeometry>
        </mxCell>
        <mxCell id="tpAFj8DhVWuROa9Wuw83-66" style="shape=partialRectangle;collapsible=0;dropTarget=0;pointerEvents=0;fillColor=none;points=[[0,0.5],[1,0.5]];portConstraint=eastwest;top=0;left=0;right=0;bottom=0;" vertex="1" parent="C-vyLk0tnHw3VtMMgP7b-23">
          <mxGeometry y="180" width="250" height="30" as="geometry" />
        </mxCell>
        <mxCell id="tpAFj8DhVWuROa9Wuw83-67" style="shape=partialRectangle;overflow=hidden;connectable=0;fillColor=#d0cee2;top=0;left=0;bottom=0;right=0;strokeColor=#56517e;" vertex="1" parent="tpAFj8DhVWuROa9Wuw83-66">
          <mxGeometry width="30" height="30" as="geometry">
            <mxRectangle width="30" height="30" as="alternateBounds" />
          </mxGeometry>
        </mxCell>
        <mxCell id="tpAFj8DhVWuROa9Wuw83-68" value="SubscriberCount" style="shape=partialRectangle;overflow=hidden;connectable=0;fillColor=#d0cee2;top=0;left=0;bottom=0;right=0;align=left;spacingLeft=6;strokeColor=#56517e;" vertex="1" parent="tpAFj8DhVWuROa9Wuw83-66">
          <mxGeometry x="30" width="220" height="30" as="geometry">
            <mxRectangle width="220" height="30" as="alternateBounds" />
          </mxGeometry>
        </mxCell>
        <mxCell id="tpAFj8DhVWuROa9Wuw83-69" style="shape=partialRectangle;collapsible=0;dropTarget=0;pointerEvents=0;fillColor=none;points=[[0,0.5],[1,0.5]];portConstraint=eastwest;top=0;left=0;right=0;bottom=0;" vertex="1" parent="C-vyLk0tnHw3VtMMgP7b-23">
          <mxGeometry y="210" width="250" height="30" as="geometry" />
        </mxCell>
        <mxCell id="tpAFj8DhVWuROa9Wuw83-70" style="shape=partialRectangle;overflow=hidden;connectable=0;fillColor=#d0cee2;top=0;left=0;bottom=0;right=0;strokeColor=#56517e;" vertex="1" parent="tpAFj8DhVWuROa9Wuw83-69">
          <mxGeometry width="30" height="30" as="geometry">
            <mxRectangle width="30" height="30" as="alternateBounds" />
          </mxGeometry>
        </mxCell>
        <mxCell id="tpAFj8DhVWuROa9Wuw83-71" value="SubscriptionCount" style="shape=partialRectangle;overflow=hidden;connectable=0;fillColor=#d0cee2;top=0;left=0;bottom=0;right=0;align=left;spacingLeft=6;strokeColor=#56517e;" vertex="1" parent="tpAFj8DhVWuROa9Wuw83-69">
          <mxGeometry x="30" width="220" height="30" as="geometry">
            <mxRectangle width="220" height="30" as="alternateBounds" />
          </mxGeometry>
        </mxCell>
        <mxCell id="tpAFj8DhVWuROa9Wuw83-1" value="DimensionDate" style="shape=table;startSize=30;container=1;collapsible=1;childLayout=tableLayout;fixedRows=1;rowLines=0;fontStyle=1;align=center;resizeLast=1;fillColor=#0050ef;fontColor=#ffffff;strokeColor=#001DBC;" vertex="1" parent="1">
          <mxGeometry x="630" y="195" width="250" height="210" as="geometry" />
        </mxCell>
        <mxCell id="tpAFj8DhVWuROa9Wuw83-2" value="" style="shape=partialRectangle;collapsible=0;dropTarget=0;pointerEvents=0;fillColor=none;points=[[0,0.5],[1,0.5]];portConstraint=eastwest;top=0;left=0;right=0;bottom=1;" vertex="1" parent="tpAFj8DhVWuROa9Wuw83-1">
          <mxGeometry y="30" width="250" height="30" as="geometry" />
        </mxCell>
        <mxCell id="tpAFj8DhVWuROa9Wuw83-3" value="PK" style="shape=partialRectangle;overflow=hidden;connectable=0;fillColor=#d0cee2;top=0;left=0;bottom=0;right=0;fontStyle=1;strokeColor=#56517e;" vertex="1" parent="tpAFj8DhVWuROa9Wuw83-2">
          <mxGeometry width="30" height="30" as="geometry">
            <mxRectangle width="30" height="30" as="alternateBounds" />
          </mxGeometry>
        </mxCell>
        <mxCell id="tpAFj8DhVWuROa9Wuw83-4" value="DateID" style="shape=partialRectangle;overflow=hidden;connectable=0;fillColor=#d0cee2;top=0;left=0;bottom=0;right=0;align=left;spacingLeft=6;fontStyle=5;strokeColor=#56517e;" vertex="1" parent="tpAFj8DhVWuROa9Wuw83-2">
          <mxGeometry x="30" width="220" height="30" as="geometry">
            <mxRectangle width="220" height="30" as="alternateBounds" />
          </mxGeometry>
        </mxCell>
        <mxCell id="tpAFj8DhVWuROa9Wuw83-5" value="" style="shape=partialRectangle;collapsible=0;dropTarget=0;pointerEvents=0;fillColor=none;points=[[0,0.5],[1,0.5]];portConstraint=eastwest;top=0;left=0;right=0;bottom=0;" vertex="1" parent="tpAFj8DhVWuROa9Wuw83-1">
          <mxGeometry y="60" width="250" height="30" as="geometry" />
        </mxCell>
        <mxCell id="tpAFj8DhVWuROa9Wuw83-6" value="" style="shape=partialRectangle;overflow=hidden;connectable=0;fillColor=#d0cee2;top=0;left=0;bottom=0;right=0;strokeColor=#56517e;" vertex="1" parent="tpAFj8DhVWuROa9Wuw83-5">
          <mxGeometry width="30" height="30" as="geometry">
            <mxRectangle width="30" height="30" as="alternateBounds" />
          </mxGeometry>
        </mxCell>
        <mxCell id="tpAFj8DhVWuROa9Wuw83-7" value="Year" style="shape=partialRectangle;overflow=hidden;connectable=0;fillColor=#d0cee2;top=0;left=0;bottom=0;right=0;align=left;spacingLeft=6;strokeColor=#56517e;" vertex="1" parent="tpAFj8DhVWuROa9Wuw83-5">
          <mxGeometry x="30" width="220" height="30" as="geometry">
            <mxRectangle width="220" height="30" as="alternateBounds" />
          </mxGeometry>
        </mxCell>
        <mxCell id="tpAFj8DhVWuROa9Wuw83-8" style="shape=partialRectangle;collapsible=0;dropTarget=0;pointerEvents=0;fillColor=none;points=[[0,0.5],[1,0.5]];portConstraint=eastwest;top=0;left=0;right=0;bottom=0;" vertex="1" parent="tpAFj8DhVWuROa9Wuw83-1">
          <mxGeometry y="90" width="250" height="30" as="geometry" />
        </mxCell>
        <mxCell id="tpAFj8DhVWuROa9Wuw83-9" style="shape=partialRectangle;overflow=hidden;connectable=0;fillColor=#d0cee2;top=0;left=0;bottom=0;right=0;strokeColor=#56517e;" vertex="1" parent="tpAFj8DhVWuROa9Wuw83-8">
          <mxGeometry width="30" height="30" as="geometry">
            <mxRectangle width="30" height="30" as="alternateBounds" />
          </mxGeometry>
        </mxCell>
        <mxCell id="tpAFj8DhVWuROa9Wuw83-10" value="Quarter" style="shape=partialRectangle;overflow=hidden;connectable=0;fillColor=#d0cee2;top=0;left=0;bottom=0;right=0;align=left;spacingLeft=6;strokeColor=#56517e;" vertex="1" parent="tpAFj8DhVWuROa9Wuw83-8">
          <mxGeometry x="30" width="220" height="30" as="geometry">
            <mxRectangle width="220" height="30" as="alternateBounds" />
          </mxGeometry>
        </mxCell>
        <mxCell id="tpAFj8DhVWuROa9Wuw83-11" style="shape=partialRectangle;collapsible=0;dropTarget=0;pointerEvents=0;fillColor=none;points=[[0,0.5],[1,0.5]];portConstraint=eastwest;top=0;left=0;right=0;bottom=0;" vertex="1" parent="tpAFj8DhVWuROa9Wuw83-1">
          <mxGeometry y="120" width="250" height="30" as="geometry" />
        </mxCell>
        <mxCell id="tpAFj8DhVWuROa9Wuw83-12" style="shape=partialRectangle;overflow=hidden;connectable=0;fillColor=#d0cee2;top=0;left=0;bottom=0;right=0;strokeColor=#56517e;" vertex="1" parent="tpAFj8DhVWuROa9Wuw83-11">
          <mxGeometry width="30" height="30" as="geometry">
            <mxRectangle width="30" height="30" as="alternateBounds" />
          </mxGeometry>
        </mxCell>
        <mxCell id="tpAFj8DhVWuROa9Wuw83-13" value="Month" style="shape=partialRectangle;overflow=hidden;connectable=0;fillColor=#d0cee2;top=0;left=0;bottom=0;right=0;align=left;spacingLeft=6;strokeColor=#56517e;" vertex="1" parent="tpAFj8DhVWuROa9Wuw83-11">
          <mxGeometry x="30" width="220" height="30" as="geometry">
            <mxRectangle width="220" height="30" as="alternateBounds" />
          </mxGeometry>
        </mxCell>
        <mxCell id="tpAFj8DhVWuROa9Wuw83-14" style="shape=partialRectangle;collapsible=0;dropTarget=0;pointerEvents=0;fillColor=none;points=[[0,0.5],[1,0.5]];portConstraint=eastwest;top=0;left=0;right=0;bottom=0;" vertex="1" parent="tpAFj8DhVWuROa9Wuw83-1">
          <mxGeometry y="150" width="250" height="30" as="geometry" />
        </mxCell>
        <mxCell id="tpAFj8DhVWuROa9Wuw83-15" style="shape=partialRectangle;overflow=hidden;connectable=0;fillColor=#d0cee2;top=0;left=0;bottom=0;right=0;strokeColor=#56517e;" vertex="1" parent="tpAFj8DhVWuROa9Wuw83-14">
          <mxGeometry width="30" height="30" as="geometry">
            <mxRectangle width="30" height="30" as="alternateBounds" />
          </mxGeometry>
        </mxCell>
        <mxCell id="tpAFj8DhVWuROa9Wuw83-16" value="DayOfMonth" style="shape=partialRectangle;overflow=hidden;connectable=0;fillColor=#d0cee2;top=0;left=0;bottom=0;right=0;align=left;spacingLeft=6;strokeColor=#56517e;" vertex="1" parent="tpAFj8DhVWuROa9Wuw83-14">
          <mxGeometry x="30" width="220" height="30" as="geometry">
            <mxRectangle width="220" height="30" as="alternateBounds" />
          </mxGeometry>
        </mxCell>
        <mxCell id="tpAFj8DhVWuROa9Wuw83-17" style="shape=partialRectangle;collapsible=0;dropTarget=0;pointerEvents=0;fillColor=none;points=[[0,0.5],[1,0.5]];portConstraint=eastwest;top=0;left=0;right=0;bottom=0;" vertex="1" parent="tpAFj8DhVWuROa9Wuw83-1">
          <mxGeometry y="180" width="250" height="30" as="geometry" />
        </mxCell>
        <mxCell id="tpAFj8DhVWuROa9Wuw83-18" style="shape=partialRectangle;overflow=hidden;connectable=0;fillColor=#d0cee2;top=0;left=0;bottom=0;right=0;strokeColor=#56517e;" vertex="1" parent="tpAFj8DhVWuROa9Wuw83-17">
          <mxGeometry width="30" height="30" as="geometry">
            <mxRectangle width="30" height="30" as="alternateBounds" />
          </mxGeometry>
        </mxCell>
        <mxCell id="tpAFj8DhVWuROa9Wuw83-19" value="DayOfWeek" style="shape=partialRectangle;overflow=hidden;connectable=0;fillColor=#d0cee2;top=0;left=0;bottom=0;right=0;align=left;spacingLeft=6;strokeColor=#56517e;" vertex="1" parent="tpAFj8DhVWuROa9Wuw83-17">
          <mxGeometry x="30" width="220" height="30" as="geometry">
            <mxRectangle width="220" height="30" as="alternateBounds" />
          </mxGeometry>
        </mxCell>
        <mxCell id="tpAFj8DhVWuROa9Wuw83-32" value="DimensionAccount" style="shape=table;startSize=30;container=1;collapsible=1;childLayout=tableLayout;fixedRows=1;rowLines=0;fontStyle=1;align=center;resizeLast=1;fillColor=#0050ef;fontColor=#ffffff;strokeColor=#001DBC;" vertex="1" parent="1">
          <mxGeometry x="220" y="-40" width="250" height="150" as="geometry" />
        </mxCell>
        <mxCell id="tpAFj8DhVWuROa9Wuw83-33" value="" style="shape=partialRectangle;collapsible=0;dropTarget=0;pointerEvents=0;fillColor=none;points=[[0,0.5],[1,0.5]];portConstraint=eastwest;top=0;left=0;right=0;bottom=1;" vertex="1" parent="tpAFj8DhVWuROa9Wuw83-32">
          <mxGeometry y="30" width="250" height="30" as="geometry" />
        </mxCell>
        <mxCell id="tpAFj8DhVWuROa9Wuw83-34" value="PK" style="shape=partialRectangle;overflow=hidden;connectable=0;fillColor=#d0cee2;top=0;left=0;bottom=0;right=0;fontStyle=1;strokeColor=#56517e;" vertex="1" parent="tpAFj8DhVWuROa9Wuw83-33">
          <mxGeometry width="30" height="30" as="geometry">
            <mxRectangle width="30" height="30" as="alternateBounds" />
          </mxGeometry>
        </mxCell>
        <mxCell id="tpAFj8DhVWuROa9Wuw83-35" value="UserID" style="shape=partialRectangle;overflow=hidden;connectable=0;fillColor=#d0cee2;top=0;left=0;bottom=0;right=0;align=left;spacingLeft=6;fontStyle=5;strokeColor=#56517e;" vertex="1" parent="tpAFj8DhVWuROa9Wuw83-33">
          <mxGeometry x="30" width="220" height="30" as="geometry">
            <mxRectangle width="220" height="30" as="alternateBounds" />
          </mxGeometry>
        </mxCell>
        <mxCell id="tpAFj8DhVWuROa9Wuw83-39" style="shape=partialRectangle;collapsible=0;dropTarget=0;pointerEvents=0;fillColor=none;points=[[0,0.5],[1,0.5]];portConstraint=eastwest;top=0;left=0;right=0;bottom=0;" vertex="1" parent="tpAFj8DhVWuROa9Wuw83-32">
          <mxGeometry y="60" width="250" height="30" as="geometry" />
        </mxCell>
        <mxCell id="tpAFj8DhVWuROa9Wuw83-40" style="shape=partialRectangle;overflow=hidden;connectable=0;fillColor=#d0cee2;top=0;left=0;bottom=0;right=0;strokeColor=#56517e;" vertex="1" parent="tpAFj8DhVWuROa9Wuw83-39">
          <mxGeometry width="30" height="30" as="geometry">
            <mxRectangle width="30" height="30" as="alternateBounds" />
          </mxGeometry>
        </mxCell>
        <mxCell id="tpAFj8DhVWuROa9Wuw83-41" value="FirstName" style="shape=partialRectangle;overflow=hidden;connectable=0;fillColor=#d0cee2;top=0;left=0;bottom=0;right=0;align=left;spacingLeft=6;strokeColor=#56517e;" vertex="1" parent="tpAFj8DhVWuROa9Wuw83-39">
          <mxGeometry x="30" width="220" height="30" as="geometry">
            <mxRectangle width="220" height="30" as="alternateBounds" />
          </mxGeometry>
        </mxCell>
        <mxCell id="tpAFj8DhVWuROa9Wuw83-51" style="shape=partialRectangle;collapsible=0;dropTarget=0;pointerEvents=0;fillColor=none;points=[[0,0.5],[1,0.5]];portConstraint=eastwest;top=0;left=0;right=0;bottom=0;" vertex="1" parent="tpAFj8DhVWuROa9Wuw83-32">
          <mxGeometry y="90" width="250" height="30" as="geometry" />
        </mxCell>
        <mxCell id="tpAFj8DhVWuROa9Wuw83-52" style="shape=partialRectangle;overflow=hidden;connectable=0;fillColor=#d0cee2;top=0;left=0;bottom=0;right=0;strokeColor=#56517e;" vertex="1" parent="tpAFj8DhVWuROa9Wuw83-51">
          <mxGeometry width="30" height="30" as="geometry">
            <mxRectangle width="30" height="30" as="alternateBounds" />
          </mxGeometry>
        </mxCell>
        <mxCell id="tpAFj8DhVWuROa9Wuw83-53" value="LastName" style="shape=partialRectangle;overflow=hidden;connectable=0;fillColor=#d0cee2;top=0;left=0;bottom=0;right=0;align=left;spacingLeft=6;strokeColor=#56517e;" vertex="1" parent="tpAFj8DhVWuROa9Wuw83-51">
          <mxGeometry x="30" width="220" height="30" as="geometry">
            <mxRectangle width="220" height="30" as="alternateBounds" />
          </mxGeometry>
        </mxCell>
        <mxCell id="tpAFj8DhVWuROa9Wuw83-54" style="shape=partialRectangle;collapsible=0;dropTarget=0;pointerEvents=0;fillColor=none;points=[[0,0.5],[1,0.5]];portConstraint=eastwest;top=0;left=0;right=0;bottom=0;" vertex="1" parent="tpAFj8DhVWuROa9Wuw83-32">
          <mxGeometry y="120" width="250" height="30" as="geometry" />
        </mxCell>
        <mxCell id="tpAFj8DhVWuROa9Wuw83-55" style="shape=partialRectangle;overflow=hidden;connectable=0;fillColor=#d0cee2;top=0;left=0;bottom=0;right=0;strokeColor=#56517e;" vertex="1" parent="tpAFj8DhVWuROa9Wuw83-54">
          <mxGeometry width="30" height="30" as="geometry">
            <mxRectangle width="30" height="30" as="alternateBounds" />
          </mxGeometry>
        </mxCell>
        <mxCell id="tpAFj8DhVWuROa9Wuw83-56" value="Email" style="shape=partialRectangle;overflow=hidden;connectable=0;fillColor=#d0cee2;top=0;left=0;bottom=0;right=0;align=left;spacingLeft=6;strokeColor=#56517e;" vertex="1" parent="tpAFj8DhVWuROa9Wuw83-54">
          <mxGeometry x="30" width="220" height="30" as="geometry">
            <mxRectangle width="220" height="30" as="alternateBounds" />
          </mxGeometry>
        </mxCell>
        <mxCell id="tpAFj8DhVWuROa9Wuw83-57" style="edgeStyle=orthogonalEdgeStyle;rounded=0;orthogonalLoop=1;jettySize=auto;html=1;exitX=1;exitY=0.5;exitDx=0;exitDy=0;entryX=0;entryY=0.5;entryDx=0;entryDy=0;" edge="1" parent="1" source="C-vyLk0tnHw3VtMMgP7b-27" target="tpAFj8DhVWuROa9Wuw83-2">
          <mxGeometry relative="1" as="geometry" />
        </mxCell>
        <mxCell id="tpAFj8DhVWuROa9Wuw83-59" value="" style="endArrow=classic;html=1;rounded=0;exitX=0.5;exitY=0;exitDx=0;exitDy=0;entryX=0.496;entryY=1.033;entryDx=0;entryDy=0;entryPerimeter=0;" edge="1" parent="1" source="C-vyLk0tnHw3VtMMgP7b-23" target="tpAFj8DhVWuROa9Wuw83-54">
          <mxGeometry width="50" height="50" relative="1" as="geometry">
            <mxPoint x="400" y="230" as="sourcePoint" />
            <mxPoint x="450" y="180" as="targetPoint" />
          </mxGeometry>
        </mxCell>
        <mxCell id="tpAFj8DhVWuROa9Wuw83-72" value="DimensionComment" style="shape=table;startSize=30;container=1;collapsible=1;childLayout=tableLayout;fixedRows=1;rowLines=0;fontStyle=1;align=center;resizeLast=1;fillColor=#0050ef;fontColor=#ffffff;strokeColor=#001DBC;" vertex="1" parent="1">
          <mxGeometry x="-250" y="170" width="250" height="360" as="geometry" />
        </mxCell>
        <mxCell id="tpAFj8DhVWuROa9Wuw83-73" value="" style="shape=partialRectangle;collapsible=0;dropTarget=0;pointerEvents=0;fillColor=none;points=[[0,0.5],[1,0.5]];portConstraint=eastwest;top=0;left=0;right=0;bottom=1;" vertex="1" parent="tpAFj8DhVWuROa9Wuw83-72">
          <mxGeometry y="30" width="250" height="30" as="geometry" />
        </mxCell>
        <mxCell id="tpAFj8DhVWuROa9Wuw83-74" value="PK" style="shape=partialRectangle;overflow=hidden;connectable=0;fillColor=#d0cee2;top=0;left=0;bottom=0;right=0;fontStyle=1;strokeColor=#56517e;" vertex="1" parent="tpAFj8DhVWuROa9Wuw83-73">
          <mxGeometry width="30" height="30" as="geometry">
            <mxRectangle width="30" height="30" as="alternateBounds" />
          </mxGeometry>
        </mxCell>
        <mxCell id="tpAFj8DhVWuROa9Wuw83-75" value="CommentID" style="shape=partialRectangle;overflow=hidden;connectable=0;fillColor=#d0cee2;top=0;left=0;bottom=0;right=0;align=left;spacingLeft=6;fontStyle=5;strokeColor=#56517e;" vertex="1" parent="tpAFj8DhVWuROa9Wuw83-73">
          <mxGeometry x="30" width="220" height="30" as="geometry">
            <mxRectangle width="220" height="30" as="alternateBounds" />
          </mxGeometry>
        </mxCell>
        <mxCell id="tpAFj8DhVWuROa9Wuw83-76" style="shape=partialRectangle;collapsible=0;dropTarget=0;pointerEvents=0;fillColor=none;points=[[0,0.5],[1,0.5]];portConstraint=eastwest;top=0;left=0;right=0;bottom=0;" vertex="1" parent="tpAFj8DhVWuROa9Wuw83-72">
          <mxGeometry y="60" width="250" height="30" as="geometry" />
        </mxCell>
        <mxCell id="tpAFj8DhVWuROa9Wuw83-77" style="shape=partialRectangle;overflow=hidden;connectable=0;fillColor=#d0cee2;top=0;left=0;bottom=0;right=0;strokeColor=#56517e;" vertex="1" parent="tpAFj8DhVWuROa9Wuw83-76">
          <mxGeometry width="30" height="30" as="geometry">
            <mxRectangle width="30" height="30" as="alternateBounds" />
          </mxGeometry>
        </mxCell>
        <mxCell id="tpAFj8DhVWuROa9Wuw83-78" value="Content" style="shape=partialRectangle;overflow=hidden;connectable=0;fillColor=#d0cee2;top=0;left=0;bottom=0;right=0;align=left;spacingLeft=6;strokeColor=#56517e;" vertex="1" parent="tpAFj8DhVWuROa9Wuw83-76">
          <mxGeometry x="30" width="220" height="30" as="geometry">
            <mxRectangle width="220" height="30" as="alternateBounds" />
          </mxGeometry>
        </mxCell>
        <mxCell id="tpAFj8DhVWuROa9Wuw83-85" style="shape=partialRectangle;collapsible=0;dropTarget=0;pointerEvents=0;fillColor=none;points=[[0,0.5],[1,0.5]];portConstraint=eastwest;top=0;left=0;right=0;bottom=0;" vertex="1" parent="tpAFj8DhVWuROa9Wuw83-72">
          <mxGeometry y="90" width="250" height="30" as="geometry" />
        </mxCell>
        <mxCell id="tpAFj8DhVWuROa9Wuw83-86" style="shape=partialRectangle;overflow=hidden;connectable=0;fillColor=#d0cee2;top=0;left=0;bottom=0;right=0;strokeColor=#56517e;" vertex="1" parent="tpAFj8DhVWuROa9Wuw83-85">
          <mxGeometry width="30" height="30" as="geometry">
            <mxRectangle width="30" height="30" as="alternateBounds" />
          </mxGeometry>
        </mxCell>
        <mxCell id="tpAFj8DhVWuROa9Wuw83-87" value="Year" style="shape=partialRectangle;overflow=hidden;connectable=0;fillColor=#d0cee2;top=0;left=0;bottom=0;right=0;align=left;spacingLeft=6;strokeColor=#56517e;" vertex="1" parent="tpAFj8DhVWuROa9Wuw83-85">
          <mxGeometry x="30" width="220" height="30" as="geometry">
            <mxRectangle width="220" height="30" as="alternateBounds" />
          </mxGeometry>
        </mxCell>
        <mxCell id="tpAFj8DhVWuROa9Wuw83-88" style="shape=partialRectangle;collapsible=0;dropTarget=0;pointerEvents=0;fillColor=none;points=[[0,0.5],[1,0.5]];portConstraint=eastwest;top=0;left=0;right=0;bottom=0;" vertex="1" parent="tpAFj8DhVWuROa9Wuw83-72">
          <mxGeometry y="120" width="250" height="30" as="geometry" />
        </mxCell>
        <mxCell id="tpAFj8DhVWuROa9Wuw83-89" style="shape=partialRectangle;overflow=hidden;connectable=0;fillColor=#d0cee2;top=0;left=0;bottom=0;right=0;strokeColor=#56517e;" vertex="1" parent="tpAFj8DhVWuROa9Wuw83-88">
          <mxGeometry width="30" height="30" as="geometry">
            <mxRectangle width="30" height="30" as="alternateBounds" />
          </mxGeometry>
        </mxCell>
        <mxCell id="tpAFj8DhVWuROa9Wuw83-90" value="Quarter" style="shape=partialRectangle;overflow=hidden;connectable=0;fillColor=#d0cee2;top=0;left=0;bottom=0;right=0;align=left;spacingLeft=6;strokeColor=#56517e;" vertex="1" parent="tpAFj8DhVWuROa9Wuw83-88">
          <mxGeometry x="30" width="220" height="30" as="geometry">
            <mxRectangle width="220" height="30" as="alternateBounds" />
          </mxGeometry>
        </mxCell>
        <mxCell id="tpAFj8DhVWuROa9Wuw83-91" style="shape=partialRectangle;collapsible=0;dropTarget=0;pointerEvents=0;fillColor=none;points=[[0,0.5],[1,0.5]];portConstraint=eastwest;top=0;left=0;right=0;bottom=0;" vertex="1" parent="tpAFj8DhVWuROa9Wuw83-72">
          <mxGeometry y="150" width="250" height="30" as="geometry" />
        </mxCell>
        <mxCell id="tpAFj8DhVWuROa9Wuw83-92" style="shape=partialRectangle;overflow=hidden;connectable=0;fillColor=#d0cee2;top=0;left=0;bottom=0;right=0;strokeColor=#56517e;" vertex="1" parent="tpAFj8DhVWuROa9Wuw83-91">
          <mxGeometry width="30" height="30" as="geometry">
            <mxRectangle width="30" height="30" as="alternateBounds" />
          </mxGeometry>
        </mxCell>
        <mxCell id="tpAFj8DhVWuROa9Wuw83-93" value="Month" style="shape=partialRectangle;overflow=hidden;connectable=0;fillColor=#d0cee2;top=0;left=0;bottom=0;right=0;align=left;spacingLeft=6;strokeColor=#56517e;" vertex="1" parent="tpAFj8DhVWuROa9Wuw83-91">
          <mxGeometry x="30" width="220" height="30" as="geometry">
            <mxRectangle width="220" height="30" as="alternateBounds" />
          </mxGeometry>
        </mxCell>
        <mxCell id="tpAFj8DhVWuROa9Wuw83-94" style="shape=partialRectangle;collapsible=0;dropTarget=0;pointerEvents=0;fillColor=none;points=[[0,0.5],[1,0.5]];portConstraint=eastwest;top=0;left=0;right=0;bottom=0;" vertex="1" parent="tpAFj8DhVWuROa9Wuw83-72">
          <mxGeometry y="180" width="250" height="30" as="geometry" />
        </mxCell>
        <mxCell id="tpAFj8DhVWuROa9Wuw83-95" style="shape=partialRectangle;overflow=hidden;connectable=0;fillColor=#d0cee2;top=0;left=0;bottom=0;right=0;strokeColor=#56517e;" vertex="1" parent="tpAFj8DhVWuROa9Wuw83-94">
          <mxGeometry width="30" height="30" as="geometry">
            <mxRectangle width="30" height="30" as="alternateBounds" />
          </mxGeometry>
        </mxCell>
        <mxCell id="tpAFj8DhVWuROa9Wuw83-96" value="DayOfMonth" style="shape=partialRectangle;overflow=hidden;connectable=0;fillColor=#d0cee2;top=0;left=0;bottom=0;right=0;align=left;spacingLeft=6;strokeColor=#56517e;" vertex="1" parent="tpAFj8DhVWuROa9Wuw83-94">
          <mxGeometry x="30" width="220" height="30" as="geometry">
            <mxRectangle width="220" height="30" as="alternateBounds" />
          </mxGeometry>
        </mxCell>
        <mxCell id="tpAFj8DhVWuROa9Wuw83-97" style="shape=partialRectangle;collapsible=0;dropTarget=0;pointerEvents=0;fillColor=none;points=[[0,0.5],[1,0.5]];portConstraint=eastwest;top=0;left=0;right=0;bottom=0;" vertex="1" parent="tpAFj8DhVWuROa9Wuw83-72">
          <mxGeometry y="210" width="250" height="30" as="geometry" />
        </mxCell>
        <mxCell id="tpAFj8DhVWuROa9Wuw83-98" style="shape=partialRectangle;overflow=hidden;connectable=0;fillColor=#d0cee2;top=0;left=0;bottom=0;right=0;strokeColor=#56517e;" vertex="1" parent="tpAFj8DhVWuROa9Wuw83-97">
          <mxGeometry width="30" height="30" as="geometry">
            <mxRectangle width="30" height="30" as="alternateBounds" />
          </mxGeometry>
        </mxCell>
        <mxCell id="tpAFj8DhVWuROa9Wuw83-99" value="DayOfWeek" style="shape=partialRectangle;overflow=hidden;connectable=0;fillColor=#d0cee2;top=0;left=0;bottom=0;right=0;align=left;spacingLeft=6;strokeColor=#56517e;" vertex="1" parent="tpAFj8DhVWuROa9Wuw83-97">
          <mxGeometry x="30" width="220" height="30" as="geometry">
            <mxRectangle width="220" height="30" as="alternateBounds" />
          </mxGeometry>
        </mxCell>
        <mxCell id="tpAFj8DhVWuROa9Wuw83-100" style="shape=partialRectangle;collapsible=0;dropTarget=0;pointerEvents=0;fillColor=none;points=[[0,0.5],[1,0.5]];portConstraint=eastwest;top=0;left=0;right=0;bottom=0;" vertex="1" parent="tpAFj8DhVWuROa9Wuw83-72">
          <mxGeometry y="240" width="250" height="30" as="geometry" />
        </mxCell>
        <mxCell id="tpAFj8DhVWuROa9Wuw83-101" style="shape=partialRectangle;overflow=hidden;connectable=0;fillColor=#d0cee2;top=0;left=0;bottom=0;right=0;strokeColor=#56517e;" vertex="1" parent="tpAFj8DhVWuROa9Wuw83-100">
          <mxGeometry width="30" height="30" as="geometry">
            <mxRectangle width="30" height="30" as="alternateBounds" />
          </mxGeometry>
        </mxCell>
        <mxCell id="tpAFj8DhVWuROa9Wuw83-102" value="Hour" style="shape=partialRectangle;overflow=hidden;connectable=0;fillColor=#d0cee2;top=0;left=0;bottom=0;right=0;align=left;spacingLeft=6;strokeColor=#56517e;" vertex="1" parent="tpAFj8DhVWuROa9Wuw83-100">
          <mxGeometry x="30" width="220" height="30" as="geometry">
            <mxRectangle width="220" height="30" as="alternateBounds" />
          </mxGeometry>
        </mxCell>
        <mxCell id="tpAFj8DhVWuROa9Wuw83-103" style="shape=partialRectangle;collapsible=0;dropTarget=0;pointerEvents=0;fillColor=none;points=[[0,0.5],[1,0.5]];portConstraint=eastwest;top=0;left=0;right=0;bottom=0;" vertex="1" parent="tpAFj8DhVWuROa9Wuw83-72">
          <mxGeometry y="270" width="250" height="30" as="geometry" />
        </mxCell>
        <mxCell id="tpAFj8DhVWuROa9Wuw83-104" style="shape=partialRectangle;overflow=hidden;connectable=0;fillColor=#d0cee2;top=0;left=0;bottom=0;right=0;strokeColor=#56517e;" vertex="1" parent="tpAFj8DhVWuROa9Wuw83-103">
          <mxGeometry width="30" height="30" as="geometry">
            <mxRectangle width="30" height="30" as="alternateBounds" />
          </mxGeometry>
        </mxCell>
        <mxCell id="tpAFj8DhVWuROa9Wuw83-105" value="Minute" style="shape=partialRectangle;overflow=hidden;connectable=0;fillColor=#d0cee2;top=0;left=0;bottom=0;right=0;align=left;spacingLeft=6;strokeColor=#56517e;" vertex="1" parent="tpAFj8DhVWuROa9Wuw83-103">
          <mxGeometry x="30" width="220" height="30" as="geometry">
            <mxRectangle width="220" height="30" as="alternateBounds" />
          </mxGeometry>
        </mxCell>
        <mxCell id="tpAFj8DhVWuROa9Wuw83-106" style="shape=partialRectangle;collapsible=0;dropTarget=0;pointerEvents=0;fillColor=none;points=[[0,0.5],[1,0.5]];portConstraint=eastwest;top=0;left=0;right=0;bottom=0;" vertex="1" parent="tpAFj8DhVWuROa9Wuw83-72">
          <mxGeometry y="300" width="250" height="30" as="geometry" />
        </mxCell>
        <mxCell id="tpAFj8DhVWuROa9Wuw83-107" style="shape=partialRectangle;overflow=hidden;connectable=0;fillColor=#d0cee2;top=0;left=0;bottom=0;right=0;strokeColor=#56517e;" vertex="1" parent="tpAFj8DhVWuROa9Wuw83-106">
          <mxGeometry width="30" height="30" as="geometry">
            <mxRectangle width="30" height="30" as="alternateBounds" />
          </mxGeometry>
        </mxCell>
        <mxCell id="tpAFj8DhVWuROa9Wuw83-108" value="Second" style="shape=partialRectangle;overflow=hidden;connectable=0;fillColor=#d0cee2;top=0;left=0;bottom=0;right=0;align=left;spacingLeft=6;strokeColor=#56517e;" vertex="1" parent="tpAFj8DhVWuROa9Wuw83-106">
          <mxGeometry x="30" width="220" height="30" as="geometry">
            <mxRectangle width="220" height="30" as="alternateBounds" />
          </mxGeometry>
        </mxCell>
        <mxCell id="tpAFj8DhVWuROa9Wuw83-109" style="shape=partialRectangle;collapsible=0;dropTarget=0;pointerEvents=0;fillColor=none;points=[[0,0.5],[1,0.5]];portConstraint=eastwest;top=0;left=0;right=0;bottom=0;" vertex="1" parent="tpAFj8DhVWuROa9Wuw83-72">
          <mxGeometry y="330" width="250" height="30" as="geometry" />
        </mxCell>
        <mxCell id="tpAFj8DhVWuROa9Wuw83-110" style="shape=partialRectangle;overflow=hidden;connectable=0;fillColor=#d0cee2;top=0;left=0;bottom=0;right=0;strokeColor=#56517e;" vertex="1" parent="tpAFj8DhVWuROa9Wuw83-109">
          <mxGeometry width="30" height="30" as="geometry">
            <mxRectangle width="30" height="30" as="alternateBounds" />
          </mxGeometry>
        </mxCell>
        <mxCell id="tpAFj8DhVWuROa9Wuw83-111" value="IsReply" style="shape=partialRectangle;overflow=hidden;connectable=0;fillColor=#d0cee2;top=0;left=0;bottom=0;right=0;align=left;spacingLeft=6;strokeColor=#56517e;" vertex="1" parent="tpAFj8DhVWuROa9Wuw83-109">
          <mxGeometry x="30" width="220" height="30" as="geometry">
            <mxRectangle width="220" height="30" as="alternateBounds" />
          </mxGeometry>
        </mxCell>
        <mxCell id="tpAFj8DhVWuROa9Wuw83-112" value="DimensionNotification" style="shape=table;startSize=30;container=1;collapsible=1;childLayout=tableLayout;fixedRows=1;rowLines=0;fontStyle=1;align=center;resizeLast=1;fillColor=#0050ef;fontColor=#ffffff;strokeColor=#001DBC;" vertex="1" parent="1">
          <mxGeometry x="220" y="570" width="250" height="120" as="geometry" />
        </mxCell>
        <mxCell id="tpAFj8DhVWuROa9Wuw83-113" value="" style="shape=partialRectangle;collapsible=0;dropTarget=0;pointerEvents=0;fillColor=none;points=[[0,0.5],[1,0.5]];portConstraint=eastwest;top=0;left=0;right=0;bottom=1;" vertex="1" parent="tpAFj8DhVWuROa9Wuw83-112">
          <mxGeometry y="30" width="250" height="30" as="geometry" />
        </mxCell>
        <mxCell id="tpAFj8DhVWuROa9Wuw83-114" value="PK" style="shape=partialRectangle;overflow=hidden;connectable=0;fillColor=#d0cee2;top=0;left=0;bottom=0;right=0;fontStyle=1;strokeColor=#56517e;" vertex="1" parent="tpAFj8DhVWuROa9Wuw83-113">
          <mxGeometry width="30" height="30" as="geometry">
            <mxRectangle width="30" height="30" as="alternateBounds" />
          </mxGeometry>
        </mxCell>
        <mxCell id="tpAFj8DhVWuROa9Wuw83-115" value="NotificationID" style="shape=partialRectangle;overflow=hidden;connectable=0;fillColor=#d0cee2;top=0;left=0;bottom=0;right=0;align=left;spacingLeft=6;fontStyle=5;strokeColor=#56517e;" vertex="1" parent="tpAFj8DhVWuROa9Wuw83-113">
          <mxGeometry x="30" width="220" height="30" as="geometry">
            <mxRectangle width="220" height="30" as="alternateBounds" />
          </mxGeometry>
        </mxCell>
        <mxCell id="tpAFj8DhVWuROa9Wuw83-116" style="shape=partialRectangle;collapsible=0;dropTarget=0;pointerEvents=0;fillColor=none;points=[[0,0.5],[1,0.5]];portConstraint=eastwest;top=0;left=0;right=0;bottom=0;" vertex="1" parent="tpAFj8DhVWuROa9Wuw83-112">
          <mxGeometry y="60" width="250" height="30" as="geometry" />
        </mxCell>
        <mxCell id="tpAFj8DhVWuROa9Wuw83-117" style="shape=partialRectangle;overflow=hidden;connectable=0;fillColor=#d0cee2;top=0;left=0;bottom=0;right=0;strokeColor=#56517e;" vertex="1" parent="tpAFj8DhVWuROa9Wuw83-116">
          <mxGeometry width="30" height="30" as="geometry">
            <mxRectangle width="30" height="30" as="alternateBounds" />
          </mxGeometry>
        </mxCell>
        <mxCell id="tpAFj8DhVWuROa9Wuw83-118" value="VideoName" style="shape=partialRectangle;overflow=hidden;connectable=0;fillColor=#d0cee2;top=0;left=0;bottom=0;right=0;align=left;spacingLeft=6;strokeColor=#56517e;" vertex="1" parent="tpAFj8DhVWuROa9Wuw83-116">
          <mxGeometry x="30" width="220" height="30" as="geometry">
            <mxRectangle width="220" height="30" as="alternateBounds" />
          </mxGeometry>
        </mxCell>
        <mxCell id="tpAFj8DhVWuROa9Wuw83-126" style="shape=partialRectangle;collapsible=0;dropTarget=0;pointerEvents=0;fillColor=none;points=[[0,0.5],[1,0.5]];portConstraint=eastwest;top=0;left=0;right=0;bottom=0;" vertex="1" parent="tpAFj8DhVWuROa9Wuw83-112">
          <mxGeometry y="90" width="250" height="30" as="geometry" />
        </mxCell>
        <mxCell id="tpAFj8DhVWuROa9Wuw83-127" style="shape=partialRectangle;overflow=hidden;connectable=0;fillColor=#d0cee2;top=0;left=0;bottom=0;right=0;strokeColor=#56517e;" vertex="1" parent="tpAFj8DhVWuROa9Wuw83-126">
          <mxGeometry width="30" height="30" as="geometry">
            <mxRectangle width="30" height="30" as="alternateBounds" />
          </mxGeometry>
        </mxCell>
        <mxCell id="tpAFj8DhVWuROa9Wuw83-128" value="ContentCreator" style="shape=partialRectangle;overflow=hidden;connectable=0;fillColor=#d0cee2;top=0;left=0;bottom=0;right=0;align=left;spacingLeft=6;strokeColor=#56517e;" vertex="1" parent="tpAFj8DhVWuROa9Wuw83-126">
          <mxGeometry x="30" width="220" height="30" as="geometry">
            <mxRectangle width="220" height="30" as="alternateBounds" />
          </mxGeometry>
        </mxCell>
        <mxCell id="tpAFj8DhVWuROa9Wuw83-125" value="" style="endArrow=classic;html=1;rounded=0;exitX=0;exitY=0.5;exitDx=0;exitDy=0;entryX=1;entryY=0.5;entryDx=0;entryDy=0;edgeStyle=orthogonalEdgeStyle;" edge="1" parent="1" source="tpAFj8DhVWuROa9Wuw83-60" target="tpAFj8DhVWuROa9Wuw83-73">
          <mxGeometry width="50" height="50" relative="1" as="geometry">
            <mxPoint x="400" y="330" as="sourcePoint" />
            <mxPoint x="450" y="280" as="targetPoint" />
          </mxGeometry>
        </mxCell>
        <mxCell id="tpAFj8DhVWuROa9Wuw83-129" value="" style="endArrow=classic;html=1;rounded=0;exitX=0.5;exitY=1;exitDx=0;exitDy=0;entryX=0.5;entryY=0;entryDx=0;entryDy=0;" edge="1" parent="1" source="C-vyLk0tnHw3VtMMgP7b-23" target="tpAFj8DhVWuROa9Wuw83-112">
          <mxGeometry width="50" height="50" relative="1" as="geometry">
            <mxPoint x="400" y="430" as="sourcePoint" />
            <mxPoint x="450" y="380" as="targetPoint" />
          </mxGeometry>
        </mxCell>
      </root>
    </mxGraphModel>
  </diagram>
</mxfile>
